<svg width="12" height="8" viewBox="0 0 12 8" fill="none" xmlns="http://www.w3.org/2000/svg">
<path d="M11.5306 2.03063L6.53063 7.03063C6.46095 7.10055 6.37816 7.15602 6.28699 7.19388C6.19583 7.23173 6.09809 7.25122 5.99938 7.25122C5.90067 7.25122 5.80293 7.23173 5.71176 7.19388C5.6206 7.15602 5.53781 7.10055 5.46813 7.03063L0.468128 2.03063C0.327232 1.88973 0.248077 1.69864 0.248077 1.49938C0.248077 1.30012 0.327232 1.10902 0.468128 0.968128C0.609025 0.827231 0.800121 0.748077 0.999378 0.748077C1.19864 0.748077 1.38973 0.827231 1.53063 0.968128L6 5.4375L10.4694 0.967503C10.6103 0.826607 10.8014 0.747452 11.0006 0.747452C11.1999 0.747452 11.391 0.826607 11.5319 0.967503C11.6728 1.1084 11.7519 1.2995 11.7519 1.49875C11.7519 1.69801 11.6728 1.88911 11.5319 2.03L11.5306 2.03063Z" fill="black"/>
</svg>
