<svg width="22" height="21" viewBox="0 0 22 21" fill="none" xmlns="http://www.w3.org/2000/svg">
<path d="M20.7959 18.7041L16.3437 14.25C17.6787 12.5104 18.3019 10.3282 18.087 8.14607C17.8722 5.9639 16.8353 3.94516 15.1867 2.49937C13.5382 1.05357 11.4014 0.288988 9.20984 0.360713C7.01829 0.432437 4.93607 1.3351 3.38558 2.88559C1.83509 4.43608 0.932429 6.5183 0.860705 8.70985C0.78898 10.9014 1.55356 13.0382 2.99936 14.6867C4.44515 16.3353 6.46389 17.3722 8.64606 17.587C10.8282 17.8019 13.0104 17.1787 14.75 15.8438L19.2059 20.3006C19.3106 20.4053 19.4348 20.4883 19.5715 20.5449C19.7083 20.6016 19.8548 20.6307 20.0028 20.6307C20.1508 20.6307 20.2973 20.6016 20.4341 20.5449C20.5708 20.4883 20.695 20.4053 20.7997 20.3006C20.9043 20.196 20.9873 20.0717 21.044 19.935C21.1006 19.7983 21.1298 19.6517 21.1298 19.5037C21.1298 19.3558 21.1006 19.2092 21.044 19.0725C20.9873 18.9358 20.9043 18.8115 20.7997 18.7069L20.7959 18.7041ZM3.12499 9C3.12499 7.73915 3.49888 6.5066 4.19938 5.45824C4.89987 4.40988 5.89551 3.59278 7.06039 3.11027C8.22527 2.62776 9.50707 2.50151 10.7437 2.7475C11.9803 2.99348 13.1162 3.60064 14.0078 4.4922C14.8994 5.38376 15.5065 6.51967 15.7525 7.7563C15.9985 8.99293 15.8722 10.2747 15.3897 11.4396C14.9072 12.6045 14.0901 13.6001 13.0418 14.3006C11.9934 15.0011 10.7608 15.375 9.49999 15.375C7.80977 15.3733 6.18927 14.7011 4.99411 13.5059C3.79894 12.3107 3.12673 10.6902 3.12499 9Z" fill="black" fillOpacity="0.4"/>
</svg>
